# xmcd CD database file
#
# Track frame offsets:
#	150
#	13895
#	27295
#	41139
#	55448
#	67777
#	82126
#	95364
#	109600
#	122235
#	135830
#	150548
#	163566
#	177090
#	190800
#	205435
#	219481
#	231456
#	244610
#	259218
#	272226
#	286152
#	300680
#	314613
#	328035
#	340357
#
# Disc length: 4710 seconds
#
# Revision: 0
# Processed by: cddbd v1.5.2PL0 Copyright (c) Steve Scherf et al.
# Submitted via: CDex 1.51
#
DISCID=7f12641a
DTITLE=Hymphrey Lyttelton - Classic Years
DYEAR=2005
DGENRE=Jazz
TTITLE0=Georgia On My Mind
TTITLE1=Travellin' Blues
TTITLE2=Wolverine Blues
TTITLE3=Blues for an Unknown Gypsy
TTITLE4=Panama Rag
TTITLE5=Down Home Rag
TTITLE6=Trog's Blues
TTITLE7=Get Out of Here and Go Home
TTITLE8=Suffolk Air
TTITLE9=On Treasure Island
TTITLE10=It's Over Now
TTITLE11=Snag It
TTITLE12=When it's Sleepy Time Down South
TTITLE13=Cakewalkin' Babies From Home
TTITLE14=Apex Blues
TTITLE15=Ice Cream
TTITLE16=The Onions
TTITLE17=Sunday Morning
TTITLE18=I Like To Go Back In The Evening
TTITLE19=Careless Love Blues
TTITLE20=Trouble In Mind
TTITLE21=Maple Leaf Rag
TTITLE22=Low Down Dirty Shame
TTITLE23=Come On and Stomp, Stomp, Stomp
TTITLE24=Dallas Blues
TTITLE25=Weary Blues
EXTD=YEAR: 2005
EXTT0=
EXTT1=
EXTT2=
EXTT3=
EXTT4=
EXTT5=
EXTT6=
EXTT7=
EXTT8=
EXTT9=
EXTT10=
EXTT11=
EXTT12=
EXTT13=
EXTT14=
EXTT15=
EXTT16=
EXTT17=
EXTT18=
EXTT19=
EXTT20=
EXTT21=
EXTT22=
EXTT23=
EXTT24=
EXTT25=
PLAYORDER=
